<svg width="0" height="0" fill="none" style="visibility: hidden; position: absolute;" aria-hidden="true">
    <symbol id="btn" width="20" height="20" viewBox="0 0 20 20" fill="none" xmlns="http://www.w3.org/2000/svg">
        <path d="M10.3333 18.6667C14.9357 18.6667 18.6667 14.9357 18.6667 10.3333C18.6667 5.73096 14.9357 2 10.3333 2C5.73096 2 2 5.73096 2 10.3333C2 14.9357 5.73096 18.6667 10.3333 18.6667Z" stroke="#CAD5FF" stroke-miterlimit="10"/>
        <path d="M5.41663 10H14.5833" stroke="#CAD5FF" stroke-miterlimit="10"/>
        <path d="M10 5.41666V14.5833" stroke="#CAD5FF" stroke-miterlimit="10"/>
    </symbol>
    <symbol id="eda" width="23" height="24" viewBox="0 0 23 24" fill="none" xmlns="http://www.w3.org/2000/svg">
        <path d="M1 11.4967V11.976C0.999915 13.9578 1.53407 15.903 2.54624 17.6068C3.55842 19.3106 5.01118 20.7101 6.75164 21.6579V23H16.3377V21.6579C18.0782 20.7101 19.5309 19.3106 20.5431 17.6068C21.5553 15.903 22.0894 13.9578 22.0893 11.976V11.4967H1Z" stroke="#5051F9" stroke-miterlimit="10"/>
        <path d="M18.9319 7.1231L22.311 2.52179" stroke="#5051F9" stroke-miterlimit="10"/>
        <path d="M17.7037 6.28432L18.8361 1" stroke="#5051F9" stroke-miterlimit="10"/>
        <path d="M2.55771 11.4967C2.29132 10.2012 2.46116 8.85383 3.04073 7.66488C3.62031 6.47592 4.57704 5.51218 5.76173 4.92394C6.94642 4.3357 8.29247 4.15602 9.58997 4.41294C10.8875 4.66986 12.0635 5.34893 12.9346 6.34424" stroke="#5051F9" stroke-miterlimit="10"/>
        <path d="M4.53481 11.4967C4.26298 10.6143 4.29894 9.66576 4.63681 8.80647C4.97468 7.94718 5.59442 7.22815 6.39446 6.76721C7.19449 6.30626 8.12738 6.13075 9.04023 6.26943C9.95308 6.40811 10.7918 6.85275 11.4188 7.5305" stroke="#5051F9" stroke-miterlimit="10"/>
        <path d="M6.63776 11.4967C6.47168 11.2509 6.3581 10.9735 6.3041 10.6818C6.2501 10.3901 6.25686 10.0904 6.32394 9.80142C6.39103 9.51246 6.517 9.24044 6.69399 9.00237C6.87098 8.76429 7.09517 8.56529 7.35256 8.4178C7.60995 8.27031 7.895 8.1775 8.18988 8.14517C8.48477 8.11284 8.78315 8.14169 9.06638 8.22992C9.34961 8.31814 9.61159 8.46384 9.83596 8.65791C10.0603 8.85198 10.2422 9.09025 10.3703 9.35782" stroke="#5051F9" stroke-miterlimit="10"/>
        <path d="M16.7271 11.4967C16.8062 11.2795 16.8318 11.0464 16.8017 10.8172C16.7716 10.5879 16.6866 10.3693 16.554 10.1799C16.4214 9.99053 16.2451 9.83588 16.0401 9.72911C15.835 9.62234 15.6072 9.56659 15.376 9.56659C15.1448 9.56659 14.917 9.62234 14.712 9.72911C14.5069 9.83588 14.3306 9.99053 14.198 10.1799C14.0654 10.3693 13.9805 10.5879 13.9504 10.8172C13.9202 11.0464 13.9458 11.2795 14.025 11.4967" stroke="#5051F9" stroke-miterlimit="10"/>
        <path d="M18.6983 11.4967C18.7718 11.0186 18.741 10.5303 18.6081 10.0652C18.4752 9.60016 18.2433 9.16931 17.9284 8.80222C17.6134 8.43513 17.2228 8.14049 16.7833 7.93849C16.3438 7.73648 15.8658 7.6319 15.3821 7.6319C14.8984 7.6319 14.4204 7.73648 13.9809 7.93849C13.5414 8.14049 13.1508 8.43513 12.8358 8.80222C12.5209 9.16931 12.289 9.60016 12.1561 10.0652C12.0232 10.5303 11.9924 11.0186 12.0659 11.4967" stroke="#5051F9" stroke-miterlimit="10"/>
        <path d="M20.6274 11.4967C20.6394 11.3409 20.6514 11.1792 20.6514 11.0174C20.6514 9.61908 20.0959 8.27804 19.1071 7.28929C18.1184 6.30053 16.7773 5.74506 15.379 5.74506C13.9807 5.74506 12.6397 6.30053 11.6509 7.28929C10.6622 8.27804 10.1067 9.61908 10.1067 11.0174C10.1067 11.1792 10.1187 11.3409 10.1307 11.4967" stroke="#5051F9" stroke-miterlimit="10"/>
    </symbol>
    <symbol id="logo" width="66" height="71" viewBox="0 0 66 71" fill="none" xmlns="http://www.w3.org/2000/svg">
        <path d="M2.736 67C2.472 67 2.25 66.91 2.07 66.73C1.89 66.55 1.8 66.328 1.8 66.064V53.878C1.8 53.602 1.89 53.38 2.07 53.212C2.25 53.032 2.472 52.942 2.736 52.942C3.012 52.942 3.234 53.032 3.402 53.212C3.582 53.38 3.672 53.602 3.672 53.878V59.044H12.024V53.878C12.024 53.602 12.114 53.38 12.294 53.212C12.474 53.032 12.696 52.942 12.96 52.942C13.236 52.942 13.458 53.032 13.626 53.212C13.794 53.38 13.878 53.602 13.878 53.878V66.064C13.878 66.328 13.794 66.55 13.626 66.73C13.458 66.91 13.236 67 12.96 67C12.696 67 12.474 66.91 12.294 66.73C12.114 66.55 12.024 66.328 12.024 66.064V60.7H3.672V66.064C3.672 66.328 3.582 66.55 3.402 66.73C3.234 66.91 3.012 67 2.736 67ZM21.4037 67.072C20.5277 67.072 19.7417 66.856 19.0457 66.424C18.3497 65.98 17.7977 65.386 17.3897 64.642C16.9937 63.886 16.7957 63.034 16.7957 62.086C16.7957 61.138 17.0117 60.286 17.4437 59.53C17.8877 58.774 18.4817 58.18 19.2257 57.748C19.9817 57.304 20.8277 57.082 21.7637 57.082C22.6997 57.082 23.5397 57.304 24.2837 57.748C25.0277 58.18 25.6157 58.774 26.0477 59.53C26.4917 60.286 26.7137 61.138 26.7137 62.086H26.0117C26.0117 63.034 25.8077 63.886 25.3997 64.642C25.0037 65.386 24.4577 65.98 23.7617 66.424C23.0657 66.856 22.2797 67.072 21.4037 67.072ZM21.7637 65.452C22.3757 65.452 22.9217 65.308 23.4017 65.02C23.8817 64.72 24.2597 64.318 24.5357 63.814C24.8117 63.298 24.9497 62.722 24.9497 62.086C24.9497 61.438 24.8117 60.862 24.5357 60.358C24.2597 59.842 23.8817 59.44 23.4017 59.152C22.9217 58.852 22.3757 58.702 21.7637 58.702C21.1637 58.702 20.6177 58.852 20.1257 59.152C19.6457 59.44 19.2617 59.842 18.9737 60.358C18.6977 60.862 18.5597 61.438 18.5597 62.086C18.5597 62.722 18.6977 63.298 18.9737 63.814C19.2617 64.318 19.6457 64.72 20.1257 65.02C20.6177 65.308 21.1637 65.452 21.7637 65.452ZM25.7957 67.018C25.5317 67.018 25.3097 66.934 25.1297 66.766C24.9617 66.586 24.8777 66.364 24.8777 66.1V63.346L25.2197 61.438L26.7137 62.086V66.1C26.7137 66.364 26.6237 66.586 26.4437 66.766C26.2757 66.934 26.0597 67.018 25.7957 67.018ZM34.3962 67.072C33.4602 67.072 32.6202 66.856 31.8762 66.424C31.1322 65.98 30.5442 65.38 30.1122 64.624C29.6802 63.868 29.4582 63.016 29.4462 62.068V53.86C29.4462 53.584 29.5302 53.362 29.6982 53.194C29.8782 53.026 30.1002 52.942 30.3642 52.942C30.6402 52.942 30.8622 53.026 31.0302 53.194C31.1982 53.362 31.2822 53.584 31.2822 53.86V58.72C31.7022 58.216 32.2062 57.82 32.7942 57.532C33.3942 57.232 34.0482 57.082 34.7562 57.082C35.6322 57.082 36.4182 57.304 37.1142 57.748C37.8102 58.18 38.3562 58.774 38.7522 59.53C39.1602 60.274 39.3642 61.12 39.3642 62.068C39.3642 63.016 39.1422 63.868 38.6982 64.624C38.2662 65.38 37.6782 65.98 36.9342 66.424C36.1902 66.856 35.3442 67.072 34.3962 67.072ZM34.3962 65.452C35.0082 65.452 35.5542 65.308 36.0342 65.02C36.5142 64.72 36.8922 64.312 37.1682 63.796C37.4562 63.28 37.6002 62.704 37.6002 62.068C37.6002 61.42 37.4562 60.844 37.1682 60.34C36.8922 59.836 36.5142 59.44 36.0342 59.152C35.5542 58.852 35.0082 58.702 34.3962 58.702C33.7962 58.702 33.2502 58.852 32.7582 59.152C32.2782 59.44 31.9002 59.836 31.6242 60.34C31.3482 60.844 31.2102 61.42 31.2102 62.068C31.2102 62.704 31.3482 63.28 31.6242 63.796C31.9002 64.312 32.2782 64.72 32.7582 65.02C33.2502 65.308 33.7962 65.452 34.3962 65.452ZM47.0524 67.072C46.1164 67.072 45.2764 66.856 44.5324 66.424C43.7884 65.98 43.2004 65.38 42.7684 64.624C42.3364 63.868 42.1144 63.016 42.1024 62.068V53.86C42.1024 53.584 42.1864 53.362 42.3544 53.194C42.5344 53.026 42.7564 52.942 43.0204 52.942C43.2964 52.942 43.5184 53.026 43.6864 53.194C43.8544 53.362 43.9384 53.584 43.9384 53.86V58.72C44.3584 58.216 44.8624 57.82 45.4504 57.532C46.0504 57.232 46.7044 57.082 47.4124 57.082C48.2884 57.082 49.0744 57.304 49.7704 57.748C50.4664 58.18 51.0124 58.774 51.4084 59.53C51.8164 60.274 52.0204 61.12 52.0204 62.068C52.0204 63.016 51.7984 63.868 51.3544 64.624C50.9224 65.38 50.3344 65.98 49.5904 66.424C48.8464 66.856 48.0004 67.072 47.0524 67.072ZM47.0524 65.452C47.6644 65.452 48.2104 65.308 48.6904 65.02C49.1704 64.72 49.5484 64.312 49.8244 63.796C50.1124 63.28 50.2564 62.704 50.2564 62.068C50.2564 61.42 50.1124 60.844 49.8244 60.34C49.5484 59.836 49.1704 59.44 48.6904 59.152C48.2104 58.852 47.6644 58.702 47.0524 58.702C46.4524 58.702 45.9064 58.852 45.4144 59.152C44.9344 59.44 44.5564 59.836 44.2804 60.34C44.0044 60.844 43.8664 61.42 43.8664 62.068C43.8664 62.704 44.0044 63.28 44.2804 63.796C44.5564 64.312 44.9344 64.72 45.4144 65.02C45.9064 65.308 46.4524 65.452 47.0524 65.452ZM55.8567 67C55.5927 67 55.3707 66.916 55.1907 66.748C55.0227 66.568 54.9387 66.346 54.9387 66.082V58.072C54.9387 57.796 55.0227 57.574 55.1907 57.406C55.3707 57.238 55.5927 57.154 55.8567 57.154C56.1327 57.154 56.3547 57.238 56.5227 57.406C56.6907 57.574 56.7747 57.796 56.7747 58.072V66.082C56.7747 66.346 56.6907 66.568 56.5227 66.748C56.3547 66.916 56.1327 67 55.8567 67ZM55.8567 55.552C55.5327 55.552 55.2507 55.438 55.0107 55.21C54.7827 54.97 54.6687 54.688 54.6687 54.364C54.6687 54.04 54.7827 53.764 55.0107 53.536C55.2507 53.296 55.5327 53.176 55.8567 53.176C56.1807 53.176 56.4567 53.296 56.6847 53.536C56.9247 53.764 57.0447 54.04 57.0447 54.364C57.0447 54.688 56.9247 54.97 56.6847 55.21C56.4567 55.438 56.1807 55.552 55.8567 55.552ZM63.7723 67C63.1723 67 62.6323 66.85 62.1523 66.55C61.6723 66.238 61.2943 65.818 61.0183 65.29C60.7423 64.762 60.6043 64.168 60.6043 63.508V54.922C60.6043 54.658 60.6883 54.442 60.8563 54.274C61.0243 54.106 61.2403 54.022 61.5043 54.022C61.7683 54.022 61.9843 54.106 62.1523 54.274C62.3203 54.442 62.4043 54.658 62.4043 54.922V63.508C62.4043 63.988 62.5363 64.39 62.8003 64.714C63.0643 65.038 63.3883 65.2 63.7723 65.2H64.3843C64.6003 65.2 64.7803 65.284 64.9243 65.452C65.0803 65.62 65.1583 65.836 65.1583 66.1C65.1583 66.364 65.0563 66.58 64.8523 66.748C64.6603 66.916 64.4083 67 64.0963 67H63.7723ZM59.7763 59.062C59.5243 59.062 59.3203 58.99 59.1643 58.846C59.0083 58.702 58.9303 58.522 58.9303 58.306C58.9303 58.066 59.0083 57.874 59.1643 57.73C59.3203 57.586 59.5243 57.514 59.7763 57.514H63.9343C64.1863 57.514 64.3903 57.586 64.5463 57.73C64.7023 57.874 64.7803 58.066 64.7803 58.306C64.7803 58.522 64.7023 58.702 64.5463 58.846C64.3903 58.99 64.1863 59.062 63.9343 59.062H59.7763Z" fill="black"/>
        <path d="M24.2775 20.3182C25.0998 17.25 28.2537 14.0961 31.322 13.2738L50.4509 8.14743C53.5192 7.32516 55.3399 9.14591 54.5177 12.2142L49.3913 31.3432C48.569 34.4114 45.4151 37.5653 42.3469 38.3876L23.2179 43.514C20.1496 44.3362 18.3289 42.5155 19.1511 39.4472L24.2775 20.3182Z" fill="#B8B8FF"/>
        <path d="M16.6088 12.6493C17.4311 9.58107 20.585 6.42717 23.6533 5.60491L42.7822 0.47854C45.8505 -0.343725 47.6713 1.47702 46.849 4.54529L41.7226 23.6743C40.9004 26.7425 37.7465 29.8964 34.6782 30.7187L15.5492 35.8451C12.4809 36.6673 10.6602 34.8466 11.4824 31.7783L16.6088 12.6493Z" fill="#5051F9"/>
    </symbol>
    <symbol id="sport" width="25" height="25" viewBox="0 0 25 25" fill="none" xmlns="http://www.w3.org/2000/svg">
        <path d="M14.0625 21.9646C14.0625 21.574 13.9073 21.199 13.6313 20.9229L4.07708 11.3687C3.80104 11.0927 3.42604 10.9375 3.03542 10.9375C2.22187 10.9375 1.5625 11.5969 1.5625 12.4104C1.5625 12.801 1.71771 13.176 1.99375 13.4521L11.5474 23.0057C11.8234 23.2818 12.1984 23.437 12.5891 23.437C13.4031 23.4375 14.0625 22.7781 14.0625 21.9646Z" stroke="#5051F9" stroke-miterlimit="10"/>
        <path d="M4.07708 15.5354C3.80104 15.2594 3.42604 15.1042 3.03542 15.1042C2.22188 15.1042 1.5625 15.7636 1.5625 16.5771C1.5625 16.9677 1.71771 17.3427 1.99375 17.6188L7.38073 23.0057C7.65677 23.2818 8.03177 23.437 8.4224 23.437C9.23646 23.4375 9.89583 22.7781 9.89583 21.9646C9.89583 21.574 9.74063 21.199 9.46458 20.9229" stroke="#5051F9" stroke-miterlimit="10"/>
        <path d="M3.64587 19.2708L2.08337 20.8333L4.16671 22.9166L5.72921 21.3541" stroke="#5051F9" stroke-miterlimit="10"/>
        <path d="M10.9375 3.03542C10.9375 3.42604 11.0927 3.80104 11.3687 4.07708L20.9224 13.6307C21.1984 13.9068 21.5734 14.062 21.9641 14.062C22.7781 14.0625 23.4375 13.4031 23.4375 12.5896C23.4375 12.199 23.2823 11.824 23.0063 11.5479L13.4521 1.99375C13.176 1.71771 12.801 1.5625 12.4104 1.5625C11.5969 1.5625 10.9375 2.22187 10.9375 3.03542V3.03542Z" stroke="#5051F9" stroke-miterlimit="10"/>
        <path d="M20.9229 9.46458C21.1989 9.74063 21.5739 9.89583 21.9645 9.89583C22.7781 9.89583 23.4375 9.23646 23.4375 8.42292C23.4375 8.03229 23.2823 7.65729 23.0062 7.38125L17.6187 1.99375C17.3427 1.71771 16.9677 1.5625 16.577 1.5625C15.7635 1.5625 15.1041 2.22188 15.1041 3.03542C15.1041 3.42604 15.2593 3.80104 15.5354 4.07708" stroke="#5051F9" stroke-miterlimit="10"/>
        <path d="M21.3542 5.72915L22.9167 4.16665L20.8334 2.08331L19.2709 3.64581" stroke="#5051F9" stroke-miterlimit="10"/>
        <path d="M7.8125 15.1042L15.1042 7.8125" stroke="#5051F9" stroke-miterlimit="10"/>
        <path d="M9.89587 17.1875L17.1875 9.89581" stroke="#5051F9" stroke-miterlimit="10"/>
    </symbol>
    <symbol id="voda" width="13" height="25" viewBox="0 0 13 25" fill="none" xmlns="http://www.w3.org/2000/svg">
        <path d="M11.1875 10.4169H1.8125" stroke="#5051F9" stroke-miterlimit="10"/>
        <path d="M1.8125 18.2294H11.1875" stroke="#5051F9" stroke-miterlimit="10"/>
        <path d="M11.1874 18.2293C11.4637 18.2293 11.7286 18.3391 11.924 18.5344C12.1193 18.7298 12.2291 18.9947 12.2291 19.271V22.9168C12.2291 23.3312 12.0645 23.7287 11.7714 24.0217C11.4784 24.3147 11.081 24.4793 10.6666 24.4793H2.33325C1.91885 24.4793 1.52142 24.3147 1.2284 24.0217C0.935372 23.7287 0.770752 23.3312 0.770752 22.9168V19.271C0.770752 18.9947 0.880499 18.7298 1.07585 18.5344C1.2712 18.3391 1.53615 18.2293 1.81242 18.2293V10.4168C1.53615 10.4168 1.2712 10.3071 1.07585 10.1117C0.880499 9.91639 0.770752 9.65144 0.770752 9.37517V7.29184C0.770752 6.46304 1.09999 5.66818 1.68604 5.08213C2.27209 4.49608 3.06695 4.16684 3.89575 4.16684H9.10408C9.93289 4.16684 10.7277 4.49608 11.3138 5.08213C11.8998 5.66818 12.2291 6.46304 12.2291 7.29184V9.37517C12.2291 9.65144 12.1193 9.91639 11.924 10.1117C11.7286 10.3071 11.4637 10.4168 11.1874 10.4168V18.2293Z" stroke="#5051F9" stroke-miterlimit="10"/>
        <path d="M9.10409 4.16689V1.56272C9.10409 1.28646 8.99434 1.0215 8.79899 0.826154C8.60364 0.630804 8.33869 0.521057 8.06242 0.521057H4.93742C4.66115 0.521057 4.3962 0.630804 4.20085 0.826154C4.0055 1.0215 3.89575 1.28646 3.89575 1.56272V4.16689" stroke="#5051F9" stroke-miterlimit="10"/>
    </symbol>
</svg>