<svg width="74" height="73" viewBox="0 0 74 73" fill="none" xmlns="http://www.w3.org/2000/svg">
<g filter="url(#filter0_d_703_3)">
<rect x="14" y="6" width="46" height="45" rx="14" fill="#5051F9"/>
</g>
<path d="M39.0625 37.9646C39.0625 37.574 38.9073 37.199 38.6313 36.9229L29.0771 27.3687C28.801 27.0927 28.426 26.9375 28.0354 26.9375C27.2219 26.9375 26.5625 27.5969 26.5625 28.4104C26.5625 28.801 26.7177 29.176 26.9938 29.4521L36.5474 39.0057C36.8234 39.2818 37.1984 39.437 37.5891 39.437C38.4031 39.4375 39.0625 38.7781 39.0625 37.9646Z" stroke="white" stroke-miterlimit="10"/>
<path d="M29.0771 31.5354C28.801 31.2594 28.426 31.1042 28.0354 31.1042C27.2219 31.1042 26.5625 31.7636 26.5625 32.5771C26.5625 32.9677 26.7177 33.3427 26.9938 33.6188L32.3807 39.0057C32.6568 39.2818 33.0318 39.437 33.4224 39.437C34.2365 39.4375 34.8958 38.7781 34.8958 37.9646C34.8958 37.574 34.7406 37.199 34.4646 36.9229" stroke="white" stroke-miterlimit="10"/>
<path d="M28.6459 35.2708L27.0834 36.8333L29.1667 38.9166L30.7292 37.3541" stroke="white" stroke-miterlimit="10"/>
<path d="M35.9375 19.0354C35.9375 19.426 36.0927 19.801 36.3687 20.0771L45.9224 29.6307C46.1984 29.9068 46.5734 30.062 46.9641 30.062C47.7781 30.0625 48.4375 29.4031 48.4375 28.5896C48.4375 28.199 48.2823 27.824 48.0063 27.5479L38.4521 17.9938C38.176 17.7177 37.801 17.5625 37.4104 17.5625C36.5969 17.5625 35.9375 18.2219 35.9375 19.0354V19.0354Z" stroke="white" stroke-miterlimit="10"/>
<path d="M45.9229 25.4646C46.1989 25.7406 46.5739 25.8958 46.9645 25.8958C47.7781 25.8958 48.4375 25.2365 48.4375 24.4229C48.4375 24.0323 48.2823 23.6573 48.0062 23.3813L42.6187 17.9938C42.3427 17.7177 41.9677 17.5625 41.577 17.5625C40.7635 17.5625 40.1041 18.2219 40.1041 19.0354C40.1041 19.426 40.2593 19.801 40.5354 20.0771" stroke="white" stroke-miterlimit="10"/>
<path d="M46.3542 21.7291L47.9167 20.1666L45.8334 18.0833L44.2709 19.6458" stroke="white" stroke-miterlimit="10"/>
<path d="M32.8125 31.1042L40.1042 23.8125" stroke="white" stroke-miterlimit="10"/>
<path d="M34.8959 33.1875L42.1875 25.8958" stroke="white" stroke-miterlimit="10"/>
<defs>
<filter id="filter0_d_703_3" x="0" y="0" width="74" height="73" filterUnits="userSpaceOnUse" color-interpolation-filters="sRGB">
<feFlood flood-opacity="0" result="BackgroundImageFix"/>
<feColorMatrix in="SourceAlpha" type="matrix" values="0 0 0 0 0 0 0 0 0 0 0 0 0 0 0 0 0 0 127 0" result="hardAlpha"/>
<feOffset dy="8"/>
<feGaussianBlur stdDeviation="7"/>
<feComposite in2="hardAlpha" operator="out"/>
<feColorMatrix type="matrix" values="0 0 0 0 0.241771 0 0 0 0 0.420242 0 0 0 0 0.879167 0 0 0 0.12 0"/>
<feBlend mode="normal" in2="BackgroundImageFix" result="effect1_dropShadow_703_3"/>
<feBlend mode="normal" in="SourceGraphic" in2="effect1_dropShadow_703_3" result="shape"/>
</filter>
</defs>
</svg>
